<svg width="87" height="57" fill="none" xmlns="http://www.w3.org/2000/svg"><path d="M48.215 7.237L41.3.375c-.502-.5-1.3-.5-1.802 0L13.65 25.848a.446.446 0 0 1-.769-.324V16.13a1.26 1.26 0 0 0-1.27-1.266H1.8c-.709 0-1.27.56-1.27 1.266v38.636c0 .354.147.648.384.884.236.265.62.383.975.383h9.808c.71 0 1.27-.56 1.27-1.267V43.782l.03-.03 11.67 11.603c.502.501.946.678 1.418.678h9.602c2.63 0 3.959-3.18 2.098-5.036L21.773 35.095 48.215 9.033a1.26 1.26 0 0 0 0-1.796zM10.605 52.91a.78.78 0 0 1-.768.766H2.983v-.059l7.622-7.51v6.803zm24.935-.854c.591.59.178 1.59-.68 1.59h-7.976c-.355 0-.68-.147-.916-.382l-11.286-11.22 5.436-5.36L35.54 52.057z" fill="#00B2B8"/><path d="M43.93 35.243l5.467 6.302h-3.812l-3.663-4.24c-.06-.06-.118-.089-.207-.06-.059.03-.118.09-.118.177v4.123h-2.955V28.941h2.955v4.123c0 .088.03.147.118.147.06.03.148 0 .207-.059l3.663-4.21h3.812l-5.466 6.301zm16.93-4.417a4.81 4.81 0 0 1 .62 2.002c.06.707.089 1.473.089 2.268v1.207h-.03c-.03.53-.089 1.06-.177 1.561a5.24 5.24 0 0 1-.502 1.443c-.444.766-1.093 1.355-1.92 1.679-.74.353-1.744.53-2.955.53-1.212 0-2.186-.177-2.955-.53a3.889 3.889 0 0 1-1.89-1.679 4.81 4.81 0 0 1-.62-2.003 27.242 27.242 0 0 1-.09-2.238V33.86h.03c.03-.53.089-1.06.148-1.56.088-.501.266-.973.532-1.444a3.889 3.889 0 0 1 1.89-1.678c.769-.354 1.743-.53 2.955-.53 1.211 0 2.216.176 2.954.53.828.294 1.477.883 1.92 1.649zm-2.216 4.24c0-.589 0-1.119-.03-1.62-.03-.5-.118-.912-.295-1.207a.393.393 0 0 0-.148-.176c-.059-.089-.177-.148-.354-.236-.178-.088-.385-.147-.68-.206a6.097 6.097 0 0 0-1.152-.088c-.473 0-.857.03-1.152.088-.296.059-.532.118-.68.206-.148.088-.266.147-.354.236-.06.088-.119.147-.148.176-.177.295-.266.678-.296 1.178-.03.501-.03 1.031-.03 1.59v.03c0 .589 0 1.12.03 1.62s.119.913.296 1.207c.03.03.059.088.148.177.059.088.177.176.354.235.148.089.384.148.68.206.295.06.68.089 1.152.089.473 0 .857-.03 1.152-.088.295-.06.502-.118.68-.207.177-.088.295-.147.354-.235.06-.089.118-.147.148-.177.177-.294.266-.677.295-1.178.03-.471.03-1.001.03-1.62zm27.653-6.125v2.886H82.84c-.088 0-.118.03-.118.118v9.6h-2.895v-9.6c0-.088-.03-.118-.118-.118h-3.457v-2.886h10.045zM74.332 31.68c-.237-.53-.532-1.001-.916-1.384a4.047 4.047 0 0 0-1.418-.972 4.288 4.288 0 0 0-1.743-.353h-6.027v12.545h2.865v-3.74h3.162c.59 0 1.181-.118 1.713-.324a4.5 4.5 0 0 0 1.418-.913c.414-.383.739-.854.975-1.414a4.24 4.24 0 0 0 .355-1.737 5.1 5.1 0 0 0-.384-1.708zm-2.541 2.385a1.67 1.67 0 0 1-.355.53 1.526 1.526 0 0 1-.56.354 1.596 1.596 0 0 1-.65.117h-3.162V31.71h3.161a1.594 1.594 0 0 1 1.182.472c.148.147.295.353.384.559.088.206.118.412.118.648.03.265-.03.471-.118.677z" fill="#00B2B8"/></svg>